<?xml version="1.0" encoding="UTF-8"?>
<svg id="Capa_1" data-name="Capa 1" xmlns="http://www.w3.org/2000/svg" viewBox="0 0 1616.88 957.14">
  <defs>
    <style>
      .cls-1 {
        fill: #181818;
      }

      .cls-2 {
        fill: #0e25aa;
      }

      .cls-3 {
        fill: #010101;
      }

      .cls-4 {
        fill: #fcfcfc;
      }

      .cls-5 {
        fill: #848484;
      }

      .cls-6 {
        fill: #0d23a4;
      }

      .cls-7 {
        fill: #505050;
      }

      .cls-8 {
        fill: #767676;
      }

      .cls-9 {
        fill: #f99a0a;
      }

      .cls-10 {
        fill: #020202;
      }

      .cls-11 {
        fill: #f0f0f0;
      }

      .cls-12 {
        fill: #4a4a4b;
      }

      .cls-13 {
        fill: #060509;
      }

      .cls-14 {
        fill: #0e2da4;
      }

      .cls-15 {
        fill: #303030;
      }

      .cls-16 {
        fill: #0b0807;
      }

      .cls-17 {
        fill: #fbfbfb;
      }

      .cls-18 {
        fill: #f9f9f9;
      }

      .cls-19 {
        fill: #0d23a3;
      }

      .cls-20 {
        fill: #0e24a6;
      }

      .cls-21 {
        fill: #f89b0a;
      }

      .cls-22 {
        fill: #6d6d6d;
      }

      .cls-23 {
        fill: #0e24a7;
      }

      .cls-24 {
        fill: #efefef;
      }

      .cls-25 {
        fill: #999;
      }

      .cls-26 {
        fill: #191919;
      }

      .cls-27 {
        fill: #9e9e9e;
      }

      .cls-28 {
        fill: #110d0d;
      }

      .cls-29 {
        fill: #fc970c;
      }

      .cls-30 {
        fill: #1f1408;
      }

      .cls-31 {
        fill: #01020a;
      }

      .cls-32 {
        fill: #f1960a;
      }

      .cls-33 {
        fill: #353535;
      }

      .cls-34 {
        fill: #c6c6c6;
      }

      .cls-35 {
        fill: #fefefe;
      }

      .cls-36 {
        fill: #fafafa;
      }

      .cls-37 {
        fill: #fdfdfd;
      }

      .cls-38 {
        fill: #0e24a8;
      }

      .cls-39 {
        fill: #f8940c;
      }
    </style>
  </defs>
  <rect width="1616.88" height="957.14"/>
  <path class="cls-2" d="M1200.53,286.31l10.06-5.28,12.43-6.85,18.16-8.33-26.62,16.27-28.38,17.18-.05,175.63,183.26,100.28,182.39-99.34.17-174.98-174.82-91.73c-5.2,4.08-11.72,4.24-17.17.2-4.91-2.94-7.26-9.9-3.99-14.85,3.57-5.41,12.58-7.33,18.53-4.37,6.05,3.01,7.81,8.88,6.9,14.97l173.6,91.15c.91.48,2.4.43,2.34.83l-.3,2.29-.03,180.3c0,1.85-2.68,1.56-3.75,2.14l-181.18,98.76c-.93.51-1.41,1.92-2.18,2-.7.07-1.28-.96-2.33-1.53l-143.66-78.62-15.93-8.76-26.84-14.56v-182.04s19.39-10.75,19.39-10.75Z"/>
  <path class="cls-9" d="M1379.37,237.25c-3.59-1.83-6.74-4.8-10.74-5.08-3.1-.22-5.6,2.37-8.14,3.7l-44.33,23.03-54.2,28.86-39.78,20.54-8.54,4.85-.04,140.67c7.21,1.92,11.3,8.68,8.17,14.48-2.01,3.73-5.76,5.03-10.02,4.94-4.28-.09-8.07-1.16-10.09-4.92-2.91-5.43.34-11.75,6.81-14.53v-130.28s.83-13.04.83-13.04l30.89-16.12,35.21-18.16,34.12-18.29,18.02-9.2,27.09-13.93,16.09-8.1,158.28,84.37-.06,151.44c0,2.47-2.68,3.8-4.77,4.86l-146.76,79.98c-3.73,2.03-6.81,1.04-9.97-.74l-24.62-13.92-50.03-28.77.73-.78,20.07,10.27,34.74,17.71,23.74,12.26,34.87-18.93,14.87-8.15,101.06-54.87-.05-148.23-74.22-39.63-45.19-24.03-24.07-12.24Z"/>
  <path class="cls-21" d="M1479.87,453.21l-68.42,38.56-41.53,22.91-36.59-18.9-36.31-19.64-24.98-13.41-28.95-15.11-.1-121.06,123.97-64.71c3.36.05,5.03,1.6,8.03,2.58l113.38,59.47c3.98,2.09,4.96,3.17,4.96,7.48l.04,103.77,6.44,3.69c4.03,4.36,4.59,11.54.9,16.39-3.17,4.18-10.31,5.25-15.13,3.51-2.67-.97-3.13-2.64-5.72-5.53Z"/>
  <path class="cls-29" d="M213.6,429.42c-5.21,0-19.84-7.24-15.97-13.36l9.89.02c.72,2.72,3.11,3.76,6.02,3.49,12.41-1.14,29.48.23,42.83-.1l21.36-.53c1.3-3.57,1.58-6.33,1.53-9.66l-.23-17.7c-.02-1.76-1.31-3.49-3.5-3.56-21.79-.71-43.08-.57-64.81-.31l-13.51-.26-.05-47.95h92.49s.06,11.09.06,11.09l-79.82.08v25.84s67.34.33,67.34.33c4.33.67,10.34,1.75,10.79,5.86l.95,8.78-.06,28.3c0,4.18-5.47,9.56-10.66,9.56l-64.66.08Z"/>
  <path class="cls-35" d="M343.35,426.91c-3.98.9-7.4.57-11.66.37l.05-76.92c0-2.35-.96-4.34.63-6.62l18.35.28,7.69,8.78,28.89,32.61,9.34,8.74c4.21,4.33,7.12,9.28,13.74,12.71l.23-66.21,10.12-.17-.07,86.52c-2.51.57-6.66,1.27-8.44-.46l-25.37-24.6c-9.49-9.2-17.85-18.41-26.37-28.39l-8.27-9.68c-2.19-2.56-5.41-3.83-9.05-2.94l.19,65.99Z"/>
  <path class="cls-35" d="M1068.34,442.81l29.11-.04,16.57.44c4.56.12,4.28-8.39,3.43-15.92l-49.06-.34c-4.38-.03-12.2-4.47-12.22-8.83l-.17-46.79c-.01-3.38,4.63-6.3,7.03-8.36l57.25.26c4.52.02,8.94,3.12,8.95,7.38l.14,73.99-7.99,7.79-56.58.03-.71-7.31c-.22-2.29,2.02-2.31,4.26-2.31Z"/>
  <path class="cls-37" d="M690.67,384.71c-1.92,4.29-3.13,8.43-4.95,12.79l-6.18,14.74-7.15,17.2h-8.98c-1.83,0-2.74-2.05-3.33-3.49l-12.84-31.55c-2.01-4.93-2.81-10.36-6.74-14.47-.82-.74-2.72,1.99-2.4,2.8l-11.85,29.23-6.55,17.49c-3.61.27-6.5.43-9.73-.29l-4.5-8.89-14.64-34.97-3.09-8.67c-1.51-4.25-4.68-7.93-4.81-13.16l10.55-.45,6.08,14.67,12.64,31.6c.42,1.05,1.38,1.74,2.23,1.62,1.23-.17,6.32-11.52,8.93-17.83l12.3-29.71,11.12-.19,9.69,24.58c3.3,8.36,6.03,16.5,11.67,24.81l8.55-18.89,2.21-6.18c2.81-7.88,4.27-15.78,8.51-23.15,3.67-.52,7.33-.69,10.73.23-.21,4.65-2.12,8.19-3.88,12.11l-3.6,8.04Z"/>
  <path class="cls-14" d="M159.44,379.32l.19,10.46h-65.72s.05,39.41.05,39.41c-3.99.36-8.32.68-12.83-.5l-.04-89.04,92.25.02v10.47s-79.43,0-79.43,0v29.19s65.52,0,65.52,0Z"/>
  <path class="cls-35" d="M927.16,427.85c-8.17,1.99-15.79.02-23.62.84l-11.2-11.2-10.28-8.77-10.51-8.56c-1.37-1.12-4.59-.74-6.22-.5l-.1,29.81c-3.71,0-7.77.79-10.66-.32-2.25-.92-.83-3.9-.83-5.53l-.11-86.37h11.61s.08,50.47.08,50.47c3.33.4,6.02.33,9.22,0l15.13-12.35,15.61-12.24,17.43.13-36.33,32.29c3.04,3.96,6.79,6.72,10.83,9.49,8.94,8.21,18.77,14.79,29.97,22.82Z"/>
  <path class="cls-35" d="M451.24,419.63l52.78-.19c.99,2.63.83,5.33.11,8.32l-22.94-.2-37.69-.36c-3.11-1.86-7.37-6.28-7.36-9.83l.13-43.93c.01-3.58,6.74-9.91,10.82-9.95l52.97-.54c3.67,2.12,9.18,5.16,9.24,9.36l.38,27.87-62.31.15-.11,16.17c-.02,2.23,1.29,3.14,3.98,3.13Z"/>
  <path class="cls-37" d="M1030.31,428.47l-.08-55.03-49.24-.26-.22,53.85-12.62.59-.07-64.58,64.85.17c4.03.01,7.59,4,9.99,6.55l.14,58.36-12.75.35Z"/>
  <path class="cls-1" d="M409.7,478.19c.8.23.78.49,0,.79-.07.55-.15.97-.27.98-4.68.36-23.24,1.4-26.69.64l-1.32-1.62c-7.49,1.13-15.19,1.68-23.1,1.65h-28.54c-6.33,2.33-12.92,3.93-19.78,4.8l-.42.46c26.21,5.89,52.66,10.23,79.34,13.02,27.98-.42,55.89.22,83.74,1.92l.64-1.62c66.62.02,133.25.03,199.9.05l1.12,1.62c17.52-1.27,35.1-1.81,52.75-1.63l1.08,1.62c13.53-1.37,27.17-1.92,40.9-1.64l1.07,1.62,3.31-.66c2.63-.65,4.27-.38,4.94.82-.35.36-.61.69-2.07.69l-388.22-.04-11.26-.57-56.4-.46c-13.6-.11-66.97-7.44-64.52-15.24,1.12-3.56,11.76-6.37,16.97-6.42l55.68-.54,81.16-.22Z"/>
  <path class="cls-37" d="M572.82,419.54l.17,9.07-28.75-.63c-3.55-.63-9.61-5.82-9.95-9.15l-.67-45.29c-3.08-.69-6.39-.18-9.92.09l-.14-10.26,10.05-.58.14-22.36h10.15s0,22.65,0,22.65h29.13s0,10.47,0,10.47l-27.82-.27-.05,42.82c0,1.48-.11,3.58,2.49,3.57l25.19-.11Z"/>
  <path class="cls-26" d="M778.37,500.99l-8.25-.16c-.64-1.77.64-2.83,3.85-3.19,25-1.51,49.87-6.33,73.82-11.82-6.81-1.01-13.41-2.6-19.81-4.78-9.06.2-18.01-.47-26.84-2.03,0,.42-.05.81-.28,1.08-.89,1.09-24.91.01-28.02-1.11-.06.63-.22,1.34-.83,1.62-1.11.52-21.96-.48-25.01-.7-.23-.02-.43-.42-.62-.93-.8-.22-.79-.48,0-.79l82.07.23,54.77.5c5.45.05,10.84,2.14,15.71,3.96,1.64.62,1.45,5.19-.06,5.9-12.92,6.05-47.75,11.55-61.54,11.68l-58.96.52Z"/>
  <path class="cls-17" d="M705.02,409.71l13.65-6.2,9.35,9.94,6.02,4.35c4.54,3.28,11.68,3.48,17.44,2.43l7.6-3.03,10.94-16.13c.55-.82.93-1.87.78-2.62-.38-1.95-6.61-3.9-4.16-5.22,5.62-3.02,11.3-5.87,18.03-6.92,1.1,4.27,1.45,8.67.08,12.48-.34.95-2.32,1.4-2.91,1.88-.52.42,1.21,16.17-17.42,27.89-1.84,1.16-2.93,3.51-5.71,3.99-25,4.38-39.16-4.3-53.69-22.85Z"/>
  <path class="cls-35" d="M779.02,374.34c2.26,3.51-9.92,10.32-12.49,9.78-1.41-.3-4.57-3.66-5.5-4.93l-.89-.68c-1.39-1.68-3.17-3.12-5.36-4.34-9.45-4.8-26.53-1.56-33.04,5.01-3.05,3.08-1.95,8.3-2.64,12.17l-16.15,7.2c-1.41-16.04-1.41-19.15,9.67-30.7,8.34-8.69,22.49-11.92,35.52-10.27,12.71,1.61,23.21,8.47,30.88,16.75Z"/>
  <path class="cls-37" d="M809.54,372.31l-.23,56.29-11.33-.07-.09-55.31,12.39-10.17,31.85.04c.48,3.12.51,5.83.07,8.97l-32.65.26Z"/>
  <polygon class="cls-37" points="941.31 363 954.79 363.08 954.29 427.84 940.81 427.76 941.31 363"/>
  <path class="cls-36" d="M980.86,486.29c-2.08.36-3.99.69-5.39-1.13,3.7-.83,6.42-.44,9.78-.37l-.13,12.57c-1.3.94-3.77-.15-4.94-.98-6.94,2.42-15.41,2.88-21.65-1.71-7-5.15-8.27-15.67-1.75-21.72,7.07-6.56,19.62-6.33,26.84-.75l1.16,1.52c.48.63-1.36,1.91-2.28.98-5.36-5.44-16.08-6.97-21.89-.72-4.88,5.24-4.5,14.11.9,18.9,5.13,4.55,13.21,4.07,19.18,1.34.77-2.84.62-5.04.17-7.92Z"/>
  <path class="cls-15" d="M746.39,478.19v.79c-.12.5-.25.89-.41.9-5.9.36-12.94-.13-18.8-.87.11.73-.11,1.2-.83,1.25l-51.21-.89c-.1.42-.19.75-.29.75-19.17.02-39.1-.44-58.02-1.09-23.6.73-49.14.61-73,0-17.25.5-34.65.82-52.21.95l-.62-.59c-7.75.34-15.36.31-22.81-.09-12.3.27-24.58.53-36.85.78l-.6-1.09c-6.44.81-13.91,1.27-20.42.94-.22-.01-.42-.43-.61-.96v-.79s336.7,0,336.7,0Z"/>
  <path class="cls-17" d="M1085.24,494.25c-3.67,4.7-11.27,5.45-15.53.87l-.41,12.72c-.85.5-3.75.32-3.86-.42v-30.42c1.49-.24,2.8-.31,3.31-.07.69.34.71,1.72.97,2.97,1.69-2.97,4.62-3.68,8.29-3.38,2.76.23,5.82,1.55,7.6,4.36,2.49,3.94,2.86,9.25-.36,13.37Z"/>
  <ellipse class="cls-18" cx="1020.21" cy="487.31" rx="12.21" ry="10.85"/>
  <path class="cls-37" d="M1053.85,477.41c.02-.83,3.24-.94,3.87-.13v20.04c-.87.5-2.74.47-3.22.17s-.83-1.06-1.05-2.29c-2.09,2.14-4.82,3.18-8,2.93-2.71-.21-6.71-1.65-6.78-4.72l-.42-16.52h3.86s.41,15.56.41,15.56c.07,2.78,3.64,3.77,6.12,3.37,2.46-.4,4.92-2.15,4.97-4.84l.26-13.57Z"/>
  <rect class="cls-11" x="942.5" y="340.43" width="11.8" height="12.49"/>
  <path class="cls-4" d="M1003.48,480.47c-1.31-1.13-3.04-1.79-4.55-1.3-1.35.44-2.87,1.88-2.91,3.54l-.33,14.77c-1.56.21-2.48.21-4.05,0l.09-20.52c1.34-.19,2.54-.28,3.14-.06.79.29.92,1.75.95,2.92,1.1-1.56,2.42-2.82,4.02-3.2,2.11-.5,4.34.06,5.45,1.7-.15.53-.66,1.24-1.81,2.14Z"/>
  <path class="cls-12" d="M761.03,379.19l6.45,4.68,9.81-6.28c1.35-.87,1.88-2.1,1.73-3.25.42.45,1.17.57,1.19,1.33.04,2.58-5.83,3.22-1.62,5.09l-11.99,4.16c-2.4-.81-5.26-3.79-5.57-5.73Z"/>
  <path class="cls-12" d="M760.13,378.51c-1.83-1.39-4.28-2.35-5.36-4.34,2.08,1.05,5.32,1.48,5.36,4.34Z"/>
  <path class="cls-31" d="M1375.85,205.8c-3.16,2.94-6.94,4.43-12.14,2.42-4.33-1.67-6.75-8.59-3.55-12.04,2.77-2.99,6.82-3.88,10.27-3.02,4.01,1,5.8,3.87,6.74,7.74.58,2.39.6,3.11-1.32,4.9Z"/>
  <path class="cls-16" d="M1216.2,469.04c-3.5,2.3-9.49,1.3-11.91-2.07-1.74-2.43-.07-5.77,1.5-7.52,2.08-2.31,6.02-3.59,9.21-2.11,1.63.75,2.76,2.81,3.58,4.15,1.62,2.62.76,5.49-2.4,7.56Z"/>
  <path d="M1477.86,449.41l-107.93,59.76-121.88-64.33.11-105.13.11-9.84,36.2-18.96,77.64-41.12c2.19-1.16,4.78-3.44,7.47-2.97l13.06,6.98,16.34,8.06,44.98,24.08,44.78,23.71-.7,105.95c-6.81,1.98-10.81,7.11-10.18,13.83Z"/>
  <path class="cls-30" d="M1494.72,456.12c-3.34,1.98-7.31.37-9.7-1.45-2.72-2.06-5.16-5.22-3.97-8.94,1.43-4.47,7.15-7.98,12.57-7.11,4.04.65,6.13,4.8,6.8,8.04s-1.74,7.1-5.7,9.46Z"/>
  <path d="M1119.41,419.35l-46.87.24c-1.93,0-3.91-1.22-4.83-1.98-1.31-1.08-.71-3.23-.7-4.74l.18-32.07c.02-2.95,1.9-8.38,5.99-8.42l41.82-.34c2.13.04,3.68,1.29,3.71,3.23l.7,44.08Z"/>
  <path class="cls-3" d="M499.44,391.14l-51.95.28-.25-14.65c-.04-2.49,3.46-4.69,6.27-4.68l45.35.02.57,19.04Z"/>
  <path class="cls-7" d="M409.7,478.98l21.03.02-.13,1.25c-20.83.68-41.37,2.59-61.63,5.71,10.84,1.93,21.8,3.12,32.87,3.56,84.82,5.27,171.03,8.86,256.68,4.92,43.59-1.37,86.9-4.13,129.95-8.28-18.89-2.96-37.88-4.46-57.15-5.17-2.69.07-4.07-.6-4.12-2l19.21-.03h26.46s2.26.76,2.26.76c6.09.06,40.01,1.5,42.5,4.5,1.75,2.1-.29,4.06-3.05,4.36-33.74,4.08-67.54,7.62-101.41,10.62-13,.15-25.95.7-38.85,1.64l-201.65-.05c-12.23-.99-24.56-1.57-37-1.74-29.47-3.24-58.97-6.13-88.51-8.68-11.32-1.59-15.36-6.46-1.5-8.81,11.2-.89,22.44-1.51,33.71-1.85l2.05-.76h28.28Z"/>
  <path class="cls-15" d="M381.41,478.98c-.15.67-.73,1.41-1.9,1.51l-28.34,2.34c-4.41.36-8.97.1-12.9,2.91,2.81,2.74,7.02,2.9,11.07,3.21l28.51,2.17,38.24,4.75,9.24.69,9.9.88,10.95.8,14.61.89c4.21.26,8.56-.4,11.87,1.7l-83.91-.31-18.81-2.64c-16.36-.83-31.99-4.11-47.8-7.57l-15.8-3.46c.86-2.78,4.31-3.58,7.45-3.87,5.53-.77,10.58-1.59,15.56-3.9l52.07-.09Z"/>
  <path class="cls-33" d="M801.15,479.02c10.37,1.25,20.8,2.46,31.27,3.65,3.99,1.99,3.74,4.01.21,6.25l-62.38,8.8c-14.23,1.06-28.26,2.11-42.11,3.14h-53.84c3.74-1.87,8.24-1.46,12.78-1.72l17.23-.98,9.27-.58,28.25-2.41,33.68-4.02,34.36-2.83c2.74-.23,5.43-.88,7.11-2.65-4.1-2.51-8.46-2.55-12.88-2.89l-28.52-2.23c-1.54-.12-2.42-.47-2.72-1.57l28.29.03Z"/>
  <path class="cls-15" d="M770.12,500.83l-41.97.02c2-1.92,5.19-1.46,8.19-1.71l12.59-1.03c17.29-1.42,33.93-3.2,50.91-6.44l31.05-4.02c1.06-.14,2.05-.55,2.39-1.02.69-.94-.17-2.31-1.68-2.5l-26.88-3.39c-1.62-.2-2.97-.78-3.57-1.74l27.2.46,8.6,2.74c2.4.77,13.43.86,13.44,3.65,0,.4-1.03,1.3-1.59,1.42l-12.53,2.63c-19.47,4.86-38.92,7.55-59.06,8.94-2.7.19-5.35.83-7.09,1.98Z"/>
  <path class="cls-22" d="M468.18,479.3c-4.72.46-9.61.88-14.68,1.29-2,.64-5.94,1.67-7.3,0-4.27.25-8.53.52-12.78.81-.53.94-4.52.97-5.47,0-4.27.25-8.53.52-12.77.81-.23.72-.54.72-.92.03-2.24-.23-27.92,2.38-27.74,3.63.1.68,12.85,2.76,14.94,2.84.25-.71.56-.71.94-.02,3.64.3,7.28.57,10.95.81.26-.71.56-.7.91,0,4.54.3,9.11.57,13.69.81.05-1.12,2.93-.88,3.65,0,4.85.31,9.72.58,14.6.81,1.37-1.04,3.5-1.04,6.39,0,5.16.31,10.33.58,15.51.81.78-1.16,2.6-1.16,5.47,0,6.66.28,13.35.55,20.07.82.74-1.32,5.44-1.25,6.39-.03,52.37,1.85,105.51,1.72,157.86.04.94-1.35,6.11-1.27,7.29-.03,6.1-.29,12.18-.56,18.25-.8,2.68-1.02,4.81-1.02,6.39,0,5.15-.27,10.32-.53,15.5-.78,6.06-.92,12.22-1.29,18.46-1.12,12.25-.86,24.37-1.98,36.39-3.35l5.4-.68c-14.01-1.97-28.19-3.35-42.54-4.14l-47.34-1.74-.56-.77,52.04-.36c4.09,1.71,8.83,1.88,13.77,1.44l34.08,2.22,14.35,1.79c1.24.16,1.89,1.39,1.42,1.87-.3.31-1.07,1.3-1.88,1.37l-33.42,2.76-19.16.85-12.74.64-11.83.66-12.81.76-13.73.79-9.04.89-12.76.84-14.94.57-25.81.76h-89.24s-24.73-.82-24.73-.82l-15.98-.5-10.11-.77-18.1-1.46-10.99-.71-14.55-.83-18.29-.78-16.42-.84-12.84-.8-10.13-.72c-4.86-.34-9.7-.12-14.35-2-.38-.15-.37-2.12.02-2.25,4.98-1.69,10.07-1.57,15.27-1.98l9.18-.72c8.63-.67,17.89-1.21,26.5-1.35,4.6-.05,9.02.03,12.81-1.69l37.45.3Z"/>
  <path class="cls-5" d="M543.83,479.03c.8.16.78.4,0,.72-.15,2.45-5.71,2.66-6.46.33-11.93-.17-23.77,0-35.51.53-.39,2.48-6.72,2.33-7.31-.04-7.6.29-15.21.56-22.81.83,0,2.37-3.06,2.26-3.65,0-5.79.3-11.57.57-17.34.8.05,2.37-2.99,2.33-3.65.07-7.8.44-15.65.87-23.54,1.3-3.52,1.07-7.1,1.8-10.73,2.2,3.61.44,7.13,1.22,10.55,2.32l22.8,1.41c.06-2.32,2.13-2.22,2.75,0,5.48.28,10.96.55,16.43.82-.35-2.42,4.96-2.33,5.47,0,7.27.28,14.57.55,21.9.81.37-2.48,6.69-2.37,7.3,0,12.49.27,24.96.54,37.41.81.34-2.46,6.67-2.39,7.3,0,22.1.71,45.4.7,67.52,0,.52-2.53,8.36-2.42,9.12,0,12.16-.27,24.32-.54,36.5-.81.34-2.46,6.67-2.39,7.3,0,7.3-.28,14.6-.55,21.9-.81-.33-2.43,4.99-2.31,5.47,0,5.47-.25,10.94-.52,16.42-.81.29-2.15,1.13-2.06,1.82,0,4.86-.25,9.73-.52,14.6-.81.19-.72.5-.74.91-.07,6.42-.5,12.75-1.41,18.99-2.72-3.69-.49-7.27-1.26-10.73-2.3-7.94-.53-15.86-.96-23.75-1.31l-.18,1.07c-30.58-.91-61.41-1.54-92.51-1.9l-1.31-1.64c-.8-.23-.79-.5,0-.82l58.31.34,19.57.92,18.75.5c3.68.1,7.25.4,11.02.61l11.84.67,12.27.63,20.48,2.03c.46.05.45,2.17,0,2.28-6.57,1.57-13.04,1.47-19.75,1.91l-11.18.73c-10.64.7-23.67,1.58-32.81,1.51-5.18.21-10.35.47-15.5.78h-6.39c-6.05.24-12.13.51-18.25.8l-7.29.03c-52.07,1.69-105.74,1.81-157.86-.04l-6.39.03c-6.66-.29-13.35-.56-20.07-.82h-5.47c-5.15-.31-10.33-.58-15.51-.81h-6.39c-4.85-.31-9.72-.58-14.6-.81h-3.65c-4.54-.3-9.11-.57-13.69-.81h-.91c-3.64-.3-7.29-.57-10.95-.81l-.94.02-6.65-.63c-3.28-.88-6.47-2.68-1.95-3.86,7.21-.99,14.35-1.65,21.4-1.99l.92-.03c4.27-.25,8.53-.52,12.77-.81h5.47c4.25-.3,8.51-.57,12.78-.81h7.3c12.44-.84,24.94-1.24,37.5-1.21l52.84-.36Z"/>
  <path class="cls-25" d="M616.83,479.03v.82s-.85,1.62-.85,1.62c-23.68-.03-47.36-.06-71.05-.09l-1.1-1.62v-.72s73,0,73,0Z"/>
  <path class="cls-8" d="M490.99,479.39l-22.46.8-15.04.4c-.08-.29.36-.81.94-.83l13.75-.46,22.81.09Z"/>
  <path class="cls-10" d="M1082.25,491.57c-1.1,3.05-3.96,4.48-6.83,4.3-2.73-.17-5.21-2.05-5.74-4.91-1.2-6.41.12-11.82,5.68-12.28,3.17-.26,5.92,1.26,6.93,4.23.91,2.68,1.05,5.66-.03,8.65Z"/>
  <path class="cls-3" d="M1025.79,494.04c-1.77,2.47-5.01,2.63-7.77,2.11-5.52-1.06-7.14-9.77-3.89-15.19,1.19-1.99,3.58-2.68,5.6-2.76,2.3-.09,5.13.48,6.47,2.76,2.21,3.77,2.39,9.2-.41,13.08Z"/>
  <ellipse class="cls-20" cx="1368.95" cy="200.86" rx="5.85" ry="5.2"/>
  <ellipse class="cls-19" cx="1211.33" cy="464.02" rx="4.9" ry="4.35"/>
  <path class="cls-2" d="M1353.11,470.45l-29.28-15.59-23.83-12.92-23.15-12.4-.02-81.44c3.38-4.9,8.93-6.7,14.31-9.39l39.02-19.56,24.29-12.45c-2.75-7.31.45-15.05,7.9-18.16,3.18-1.33,9.05-1.76,12.26-.42,7.66,3.19,10.86,11.26,8.87,18.18l22.41,11.66,50.9,26.8c2.96.72,4.58,2.8,4.58,5.6l.05,81.68-91.07,47.18-17.25-8.78Z"/>
  <ellipse class="cls-23" cx="1491.16" cy="447.48" rx="6.3" ry="5.6"/>
  <path class="cls-8" d="M657.9,492.78c.02.33-.33.73-.97.73l-21.89.19-7.61.46-32.9.58h-31.17s-33.58-.79-33.58-.79l-28.79-.43c-.66,0-1-.41-.96-.78l30.03.28c3.59.03,6.79.48,10.47.46l84.88-.33,32.48-.37Z"/>
  <path class="cls-8" d="M414.25,482.25c.17.17-.03.69-.31.69-7.39,0-14.42.43-21.85,2.48,2.14,3.66,6.77,1.27,9.36,3.31-6.42.13-13.68.28-19.87-2.9,6.69-2.99,13.32-2.28,19.62-3.1,4.59-.6,8.82-.34,13.05-.47Z"/>
  <path class="cls-8" d="M493.64,492.77l-19.12-.03c-.63,0-1-.46-.95-.79l19.12.02c.63,0,1.01.47.95.81Z"/>
  <path class="cls-8" d="M683.43,491.94c.05.33-.32.79-.95.79h-17.3c.1-.52.79-.84,1.77-.83l16.48.04Z"/>
  <path class="cls-8" d="M468.09,491.95l-13.75.04c-.98,0-1.66-.31-1.76-.85l13.75-.04c.98,0,1.67.31,1.76.85Z"/>
  <path class="cls-8" d="M705.33,491.17c-.09.5-.77.82-1.75.82l-13.75-.04c.08-.51.79-.88,1.77-.87l13.73.1Z"/>
  <path class="cls-8" d="M446.19,491.13l-12.84.04c-.98,0-1.66-.31-1.76-.85l12.84-.04c.98,0,1.66.31,1.76.85Z"/>
  <path class="cls-8" d="M427.95,490.32l-11.93.04c-.97,0-1.66-.31-1.76-.85l11.93-.04c.98,0,1.66.31,1.76.85Z"/>
  <path class="cls-8" d="M427.94,481.41c-.1.54-.78.86-1.76.85l-11.02-.04c.1-.54.78-.86,1.76-.85l11.02.04Z"/>
  <path class="cls-8" d="M446.19,480.6c-.1.54-.78.85-1.76.85l-11.02-.04c.1-.54.78-.86,1.76-.85l11.02.05Z"/>
  <path class="cls-8" d="M413.35,489.51l-9.2.04c-.97,0-1.65-.31-1.75-.85l9.2-.04c.97,0,1.65.31,1.75.85Z"/>
  <path class="cls-27" d="M543.83,479.76l73,.09,35.18.4,30.82.83,19.68.51,8.32.72c9.51.15,18.98.88,28.4,2.19,1.14,2.09-.26,3.24-4.2,3.44l-8.71.7-.91.07c-4.86.25-9.73.52-14.6.81h-1.82c-5.47.25-10.94.52-16.42.81h-5.47c-7.3.27-14.6.54-21.9.81h-7.3c-12.15.27-24.32.54-36.5.81h-9.12c-22.17.71-45.36.7-67.52,0h-7.3c-12.45-.27-24.92-.54-37.41-.81h-7.3c-7.27-.27-14.57-.54-21.9-.81h-5.47c-5.48-.27-10.96-.54-16.43-.81h-2.75s-22.73-1.4-22.73-1.4c-7.03-1.25-8.06-3.07-.42-4.48,8.09-.46,16.12-.92,24.07-1.36l3.65-.07c5.79-.22,11.57-.49,17.34-.8h3.65c7.61-.27,15.21-.54,22.81-.82l7.31.04c11.74-.53,23.57-.71,35.51-.53l6.46-.33Z"/>
  <path class="cls-25" d="M447.1,482.27c-.23.62-1.51,1-2.63.87-5.18-.57-9.63.19-14.67.66-3.73.35-7.73-.4-10.58,2.39,2.72,1.85,5.82,1.26,8.73,1.67,8.68,1.23,14.65.25,18.22,1.65l-12.66-.2-10.21-.67-16-1.88c1.37-3.27,4.42-2.37,6.85-2.77,9.6-1.55,23.03-1.54,32.94-1.72Z"/>
  <path class="cls-25" d="M726.32,488.63c2.16-1.55,7.62-.1,12.15-2.68-2.49-2.55-5.64-1.7-8.52-2.02-5.71-.65-10.73-1.33-16.51-.79-1.15.11-2.4-.23-2.62-.83l12.63.13,11.16.66c4.96.29,10.16.74,14.95,2.07,1.01.39-.31,1.92-.93,1.99l-3.09.36c-6.81.8-12.9,1.59-19.23,1.11Z"/>
  <path class="cls-25" d="M612.26,491.94c.05.31-.31.81-1.01.81h-65.5c-.7,0-1.06-.5-1.01-.81h67.52Z"/>
  <path class="cls-25" d="M537.44,491.94h-36.44c-.65,0-1.03-.49-.97-.81h36.44c.65,0,1.03.5.97.81Z"/>
  <path class="cls-25" d="M657.89,491.13c.06.32-.32.81-.97.81h-35.53c-.06-.31.32-.81.97-.81h35.53Z"/>
  <path class="cls-25" d="M537.37,480.09l-35.51.53c-.06-.35.32-.83.96-.83l34.54.3Z"/>
  <path class="cls-25" d="M494.55,480.58c.06.34-.32.81-.95.81l-21.86.02c-.05-.33.32-.8.95-.8l21.86-.03Z"/>
  <path class="cls-25" d="M687.08,490.32c.06.33-.32.8-.95.8h-20.95c-.06-.31.32-.79.95-.79h20.95Z"/>
  <path class="cls-25" d="M492.73,491.13h-20.95c-.63-.01-1.01-.49-.95-.81h20.95c.63.01,1.01.49.95.81Z"/>
  <path class="cls-25" d="M468.09,481.4c-.1.54-.79.86-1.76.86l-15.58-.06c-.05-.32.32-.78.95-.78l16.39-.02Z"/>
  <path class="cls-25" d="M708.98,489.51c-.1.54-.78.86-1.76.85l-14.66-.04c.1-.54.78-.86,1.76-.85l14.66.04Z"/>
  <path class="cls-25" d="M465.36,490.32l-14.66.04c-.98,0-1.66-.31-1.76-.86l14.66-.04c.98,0,1.67.31,1.76.85Z"/>
  <path class="cls-25" d="M725.41,488.7c-.1.54-.78.85-1.76.85l-12.84-.04c.1-.54.78-.86,1.76-.85l12.84.04Z"/>
  <path d="M1453.47,427.34l-84.14,43.6-84.87-45.36-.04-75.83,74.62-37.52c3.53,1.58,7.17,2.62,11.5,2.1,3.21.59,5.66-.63,8.24-2.51l74.75,39.04-.06,76.48Z"/>
  <path class="cls-13" d="M1376.68,306.55c-3.18,3.74-10.06,4.17-14.01,1.94-4.32-2.43-4.31-7.7-2.59-11.09,2.03-4.01,7.62-6.18,12.69-4.19s7.66,8.93,3.91,13.34Z"/>
  <path class="cls-34" d="M605.86,490.68l-47.93.38-7.8-.53-47.8-.66-25.94-.57-11.02-.62c-4.07-.23-7.86-.31-11.87-.72-4.58-.47-9.18.8-13.85-1.88,4.32-2.86,9.15-2.01,13.92-2.3,4.6-.28,8.92-1.28,13.62-.72l10.11-.67,27.77-.55,51.89-.85,37.67-.24,8.5.51,48.29.34,11.06.7,22.73.57,18.3.79c4.72.2,9.32-.45,14.17,2-1,1.83-3.59,1.92-5.85,2.09l-10.21.76-18.76.51-28.13.83-48.84.82Z"/>
  <path class="cls-21" d="M1371.45,448.19c-2.48.94-5.58-2.81-3.7-4.56l.46-1.64c16.66-9.78,33.51-19.14,50.57-28.06l.57-50.07-50.31-26.19-51.57,26.61-.1,43.84c3.39,1.42,6,3.98,7.44,7.04,1.01,2.15,2.48,6.39-.7,7.07-.49,2.29-1.51,3.7-3.05,4.22-5.24,4.55-15.05,3.25-18.6-2.55-2.01-6.02-.24-11.39,6.16-13.99l.16-49.16,48.3-24.93,11.86-6.45,51.94,27.03c2.24,1.29,5.32,2.82,6.36,5.14l-.3,56.98-46.26,24.89-9.22,4.79Z"/>
  <path class="cls-38" d="M1324.11,422.23c.42-.53,1.16-1.26,1.62-1.06,11.87,5.27,27.53,12.5,38.46,18.86,2.73.76,3.92,1.96,3.57,3.6l3.7,4.56c-1.79,1.57-3.92.88-6.19-.24l-44.2-21.5.44-2.65c.16-.96,1.41-2.16,2.61-1.57Z"/>
  <ellipse class="cls-39" cx="1368.48" cy="301.66" rx="6.35" ry="5.64"/>
  <path class="cls-24" d="M653.82,487.9l-20.65.67h-108.45s-19.25-.68-19.25-.68c-5.55-.2-11.32.32-17.08-1.84,4.42-2.71,10.09-2.08,15.25-2.22l24.75-.66h102.05s24.75.63,24.75.63c4.84.12,10.14-.17,14.28,2.2-5.07,2.05-10.27,1.72-15.64,1.9Z"/>
  <path d="M1367.75,443.63l-43.65-21.4c.62-5.41-2.14-10.68-8.56-13.13l.05-45.73,53.41-27.59,52.17,27.13-.59,52.26-29.07,15.21-19.36,11.16c-1.58.91-2.55,2.15-4.4,2.1Z"/>
  <path d="M1317.35,425.41c-3.82,1.99-10.79-.05-12.02-4.12-1.4-4.6,2.25-8.57,6.32-9.02,5.52-.61,8.96,2.07,9.54,6.87.35,2.86-.17,4.35-3.84,6.27Z"/>
  <path class="cls-21" d="M1370.69,419.97c-7.21-1.52-13.01-4.59-19.05-7.66l-11.43-5.33c-2.18-1.02-2.77-3.59-2.76-5.77l.19-28.5,30.68-15.85,31.97,16.43.12,31.3-29.72,15.37Z"/>
  <ellipse class="cls-6" cx="1312.95" cy="419.14" rx="5.45" ry="4.84"/>
  <path d="M1369,414.48l-25.1-11.78.11-27.24c2.61-2.51,5.73-3.8,8.85-5.38l15.27-7.71,26.01,13.24.03,25.64-25.18,13.23Z"/>
  <path class="cls-32" d="M1369.08,400.09l-12.17-4.8.11-13.49,12.09-6.42c11.42,5.78,11.62,6.79,11.36,19.25l-11.38,5.45Z"/>
  <path class="cls-28" d="M1370.74,397.09c-3.82-.24-6.57-1.48-9.71-2.99-.35-3.22-.99-6.67.56-9.92,1.05-2.2,5.18-4.21,7.8-3.8,2.48.39,4.31,2.09,6.43,3.15,1.17,7.02,1.6,10.79-5.09,13.56Z"/>
  <path class="cls-23" d="M1366.92,382.99c3.89-.99,7.18,1.37,7.46,3.96.37,3.33-.67,5.93-4.54,6.8-2.74.61-6.2-1.17-7.3-3.73-1.16-2.71.5-6.04,4.38-7.03Z"/>
</svg>